<svg xmlns="http://www.w3.org/2000/svg" aria-hidden="true" style="position:absolute;width:0;height:0;overflow:hidden">
  <defs>
    <symbol id="icon-odigo-logo" viewBox="0 0 85 32">
      <path fill="#fff" d="M84.086 12.475c-.379-1.207-.905-2.298-1.645-3.25-.741-.953-1.645-1.641-2.715-2.158a4.675 4.675 0 0 0-.954-.402l-.034-.009s-.116-.066-.222-.066c-.05 0-.107 0-.165-.057-.041 0-.098 0-.098-.058l-.781-.164a9.772 9.772 0 0 0-2.173-.098c-1.267.057-2.386.328-3.372.788a8.356 8.356 0 0 0-2.704 2.137l-.011.014c-.741.952-1.268 1.994-1.646 3.258-.361 1.198-.526 2.561-.526 3.924 0 1.42.165 2.733.535 3.939A10.607 10.607 0 0 0 69.24 23.5l-.019-.026a8.848 8.848 0 0 0 1.78 1.605l.031.02c.313.214.576.37.905.526h.041s.049 0 .049.049c.035 0 .052.017.067.031.013.014.026.027.049.027.535.262 1.119.41 1.752.525 1.852.361 3.439.106 3.439.106.847-.107 1.645-.37 2.387-.69a8.068 8.068 0 0 0 2.745-2.137l.011-.013c.74-.887 1.267-1.994 1.645-3.2.361-1.208.526-2.521.526-3.94 0-1.412-.214-2.725-.535-3.94l-.025.033zm-12.4 1.149c.215-.821.478-1.617.847-2.248.371-.623.847-1.149 1.374-1.51a3.205 3.205 0 0 1 1.84-.575h.013-.001c.692 0 1.275.148 1.81.517.526.361.947.821 1.317 1.412.37.632.641 1.313.846 2.15.223.836.33 1.683.33 2.626v.312c0 .943-.107 1.888-.264 2.725-.214.845-.477 1.575-.846 2.215a4.658 4.658 0 0 1-1.368 1.451l-.016.01c-.526.37-1.152.525-1.851.525-.692 0-1.316-.165-1.851-.526a4.556 4.556 0 0 1-1.372-1.455l-.011-.021c-.378-.625-.641-1.354-.855-2.2-.206-.837-.264-1.782-.264-2.725.058-.902.165-1.837.33-2.676l-.009-.008zM60.077 26.542l-2.057 2.356-.214.212.214 2.89h3.176l3.34-3.726v-11.85l-.099-.903-4.36 2.248v8.774z" style="fill:var(--color1, #fff)"/>
      <path fill="#fff" d="M33.32 5.39 31.242 3.1l-.275-.195.217-2.906 3.2.049 3.442 3.685v11.991l-.1.666-4.406-2.273V5.39zm29.492 3.223c.749.941 1.281 2.021 1.664 3.214l.017-.032c.374 1.201.54 2.5.54 3.896 0 1.404-.166 2.705-.532 3.897-.382 1.193-.915 2.29-1.662 3.166a8.051 8.051 0 0 1-2.737 2.106l-.049.021c-.747.317-1.554.577-2.41.682 0 0-1.604.252-3.475-.105-.64-.114-1.23-.26-1.762-.519-.031 0-.044-.015-.059-.031-.012-.013-.025-.027-.05-.027 0-.049-.058-.049-.058-.049h-.041a6.375 6.375 0 0 1-.936-.533l.022.014a9.1 9.1 0 0 1-1.82-1.596l-.009-.011a10.332 10.332 0 0 1-1.641-3.092l-.021-.074c-.366-1.193-.533-2.492-.533-3.897 0-1.347.158-2.694.524-3.88.382-1.25.914-2.281 1.662-3.223a8.395 8.395 0 0 1 2.695-2.105l.049-.022c.997-.454 2.127-.723 3.407-.779.865-.049 1.612 0 2.195.097l.79.162c0 .057.058.057.1.057.039.036.09.058.147.058l.019-.001h-.001a.55.55 0 0 1 .225.065c.316.082.691.244.998.407 1.08.511 1.994 1.193 2.743 2.135zm-9.957 2.127c-.375.626-.64 1.413-.849 2.225l.008.008c-.213.818-.273 1.73-.33 2.612l-.002.035c0 .933.051 1.866.266 2.694.217.836.482 1.559.857 2.176a4.6 4.6 0 0 0 1.387 1.462c.541.357 1.181.519 1.887.519.691 0 1.339-.155 1.87-.519a4.625 4.625 0 0 0 1.369-1.425l.011-.02c.374-.634.648-1.356.857-2.193.165-.828.282-1.761.282-2.694v-.31c0-.933-.117-1.769-.332-2.597-.217-.828-.482-1.502-.857-2.126a4.77 4.77 0 0 0-1.314-1.386l-.015-.01c-.54-.365-1.13-.511-1.829-.511-.706 0-1.338.202-1.869.568-.541.357-1.022.877-1.397 1.494zM40.22 5.715h4.488v20.092H40.22V5.715z" style="fill:var(--color1, #fff)"/>
      <path fill="#fff" d="M42.33 1.032a2.064 2.064 0 0 1 2.057 2.064V3.105c0 1.138-.92 2.06-2.057 2.064-1.137.051-2.058-.869-2.058-2.069v-.005c0-1.138.921-2.061 2.058-2.064zM15.407 9.467c.741.96 1.268 2.061 1.646 3.278l.017-.033c.37 1.225.535 2.55.535 3.973 0 1.432-.165 2.756-.526 3.973-.379 1.217-.906 2.334-1.646 3.228a7.991 7.991 0 0 1-2.71 2.148l-.047.021c-.741.323-1.539.588-2.387.696 0 0-1.59.256-3.441-.107-.634-.117-1.218-.265-1.754-.531-.049 0-.049 0-.098-.058 0-.05-.058-.05-.058-.05h-.041a6.276 6.276 0 0 1-.925-.543l.019.013a9.113 9.113 0 0 1-1.8-1.626l-.011-.013c-.741-.91-1.268-1.961-1.646-3.228-.37-1.217-.535-2.541-.535-3.974 0-1.373.165-2.747.526-3.956.379-1.275.905-2.327 1.646-3.287A8.372 8.372 0 0 1 4.84 7.246l.047-.022c.988-.465 2.107-.737 3.375-.795a9.64 9.64 0 0 1 2.172.099l.782.165c0 .058.057.058.098.058a.213.213 0 0 0 .165.058c.106 0 .222.066.222.066.313.083.683.249.988.414 1.069.522 1.975 1.218 2.716 2.178zm21.737 3.278c-.378-1.217-.905-2.317-1.645-3.278-.741-.96-1.646-1.655-2.716-2.177a4.646 4.646 0 0 0-.954-.404l-.034-.009s-.116-.067-.222-.067c-.05 0-.107 0-.165-.058-.05 0-.099 0-.099-.058l-.79-.165a9.405 9.405 0 0 0-2.195-.098l.03-.002c-1.268.059-2.387.331-3.374.795a8.373 8.373 0 0 0-2.704 2.155l-.011.014c-.741.96-1.268 2.012-1.646 3.287-.361 1.208-.526 2.583-.526 3.957 0 1.432.165 2.756.535 3.973a10.546 10.546 0 0 0 1.666 3.254l-.019-.026a8.844 8.844 0 0 0 1.781 1.62l.03.019c.313.216.947.53.947.53s.05 0 .05.05c.035 0 .052.018.066.032.013.013.026.027.049.027.535.264 1.112.413 1.754.53 1.852.363 3.439.107 3.439.107.849-.107 1.646-.372 2.388-.696a8.081 8.081 0 0 0 2.745-2.154l.011-.014c.741-.895 1.269-2.013 1.646-3.229.362-1.217.519-2.541.519-3.974 0-1.422-.206-2.747-.526-3.972l-.026.033zm-12.403 1.16c.214-.828.477-1.631.847-2.269.371-.63.847-1.158 1.374-1.523a3.186 3.186 0 0 1 1.842-.58h.01-.001c.692 0 1.276.15 1.812.522.526.364.947.828 1.316 1.423.372.637.634 1.324.849 2.168.222.845.329 1.698.329 2.65v.315c0 .952-.107 1.903-.264 2.748-.214.853-.477 1.59-.846 2.235a4.7 4.7 0 0 1-1.368 1.463l-.016.01c-.526.373-1.153.531-1.852.531-.692 0-1.317-.165-1.852-.531a4.587 4.587 0 0 1-1.372-1.468l-.012-.021c-.379-.63-.642-1.366-.857-2.218-.204-.844-.262-1.796-.262-2.748.058-.91.165-1.854.329-2.698l-.008-.008zm-20.033 0c.206-.828.469-1.631.839-2.269.371-.63.847-1.158 1.383-1.523a3.133 3.133 0 0 1 1.825-.58h.029-.001c.692 0 1.275.15 1.811.522a4.75 4.75 0 0 1 1.316 1.423c.372.637.634 1.324.849 2.168.214.845.329 1.698.329 2.65l-.017.315c0 .952-.099 1.903-.264 2.748-.205.853-.477 1.59-.846 2.235a4.64 4.64 0 0 1-1.352 1.463l-.015.01c-.526.373-1.17.531-1.852.531-.7 0-1.334-.165-1.868-.531a4.655 4.655 0 0 1-1.363-1.468l-.012-.022c-.329-.521-.576-1.258-.798-2.152-.215-.853-.271-1.821-.271-2.764 0-.952.057-1.905.263-2.749l.017-.008z" style="fill:var(--color1, #fff)"/>
    </symbol>
  </defs>
</svg>
