<svg xmlns="http://www.w3.org/2000/svg" aria-hidden="true" style="position:absolute;width:0;height:0;overflow:hidden">
  <defs>
    <symbol id="icon-icon-dom" viewBox="0 0 32 32">
      <path d="M0 0h32v32H0V0z"/>
    </symbol>
    <symbol id="icon-icon-magazine" viewBox="0 0 32 32">
      <path d="M0 0h32v32H0V0z"/>
    </symbol>
    <symbol id="icon-icon-people" viewBox="0 0 32 32">
      <path d="M0 0h32v32H0V0z"/>
    </symbol>
    <symbol id="icon-odigo-logo" viewBox="0 0 85 32">
      <path d="M84.086 12.475c-.378-1.206-.905-2.298-1.646-3.25s-1.646-1.641-2.715-2.159a4.846 4.846 0 0 0-.987-.41s-.115-.066-.222-.066c-.049 0-.107 0-.165-.057-.041 0-.099 0-.099-.057l-.782-.164a9.763 9.763 0 0 0-2.172-.098c-1.267.057-2.386.328-3.373.788a8.286 8.286 0 0 0-2.715 2.15c-.74.952-1.267 1.994-1.646 3.258-.362 1.198-.527 2.561-.527 3.923 0 1.42.165 2.733.535 3.939a10.607 10.607 0 0 0 1.646 3.201 8.783 8.783 0 0 0 1.81 1.625c.313.213.576.369.905.525h.041s.049 0 .049.049c.035 0 .052.016.067.032.013.013.025.026.048.026.535.263 1.119.41 1.753.525 1.851.361 3.439.107 3.439.107.847-.107 1.646-.369 2.386-.689a8.015 8.015 0 0 0 2.756-2.15c.74-.886 1.267-1.994 1.646-3.201.362-1.206.527-2.52.527-3.939 0-1.412-.214-2.725-.535-3.939l-.025.033zm-12.399 1.149c.214-.821.477-1.617.847-2.249.37-.624.847-1.149 1.374-1.51a3.234 3.234 0 0 1 1.851-.575c.691 0 1.275.148 1.81.517.527.361.946.821 1.316 1.412.37.632.642 1.313.847 2.15.222.837.329 1.682.329 2.626v.312c0 .944-.107 1.888-.263 2.725-.214.845-.477 1.576-.847 2.216a4.62 4.62 0 0 1-1.382 1.461c-.527.369-1.152.525-1.851.525-.691 0-1.316-.164-1.851-.525a4.515 4.515 0 0 1-1.382-1.477c-.378-.624-.642-1.354-.856-2.2-.206-.837-.263-1.781-.263-2.725.058-.903.165-1.838.329-2.675l-.008-.008zm-11.61 12.918-2.057 2.355-.214.213.214 2.889h3.176l3.34-3.726V16.422l-.099-.903-4.361 2.249v8.773z"/>
      <path d="m33.32 5.39-2.078-2.289-.274-.195L31.184 0l3.2.049 3.441 3.685v11.99l-.1.666-4.406-2.273V5.39zm29.493 3.223c.748.942 1.28 2.021 1.663 3.215l.017-.033c.374 1.201.54 2.5.54 3.897 0 1.404-.166 2.703-.532 3.897-.382 1.193-.914 2.289-1.662 3.166a8.011 8.011 0 0 1-2.785 2.127c-.748.317-1.554.576-2.411.682 0 0-1.604.252-3.475-.106-.64-.114-1.23-.26-1.762-.52-.03 0-.045-.015-.059-.03-.013-.014-.025-.027-.049-.027 0-.049-.058-.049-.058-.049h-.042a6.225 6.225 0 0 1-.914-.52 9.05 9.05 0 0 1-1.829-1.607 10.411 10.411 0 0 1-1.662-3.166c-.366-1.193-.532-2.492-.532-3.897 0-1.348.158-2.695.524-3.88.382-1.25.914-2.281 1.663-3.223a8.35 8.35 0 0 1 2.743-2.127c.997-.455 2.128-.723 3.408-.779.865-.049 1.613 0 2.194.097l.79.162c0 .057.058.057.1.057.067.057.116.057.166.057.108 0 .224.065.224.065.316.081.69.244.997.406 1.081.511 1.995 1.193 2.743 2.135zm-9.958 2.127c-.374.625-.64 1.413-.848 2.224l.008.008c-.213.818-.273 1.73-.33 2.612l-.002.034c0 .934.05 1.867.266 2.695.216.836.482 1.559.856 2.176a4.577 4.577 0 0 0 1.388 1.461c.54.357 1.18.52 1.887.52.69 0 1.338-.154 1.87-.52s1.014-.828 1.38-1.445c.374-.633.648-1.356.856-2.192.166-.828.283-1.762.283-2.695v-.308c0-.934-.116-1.77-.333-2.598s-.482-1.502-.856-2.127a4.708 4.708 0 0 0-1.33-1.396c-.54-.365-1.131-.511-1.829-.511-.707 0-1.338.203-1.87.568-.54.357-1.022.877-1.396 1.494zM40.22 5.715h4.489v20.092H40.22V5.715z"/>
      <path d="M42.33 1.032c1.136 0 2.058.927 2.058 2.069S43.466 5.17 42.33 5.17c-1.136.05-2.058-.869-2.058-2.069 0-1.142.922-2.069 2.058-2.069zM15.407 9.467c.741.96 1.267 2.061 1.646 3.278l.016-.033c.37 1.225.535 2.549.535 3.973 0 1.432-.165 2.756-.527 3.973-.379 1.217-.905 2.334-1.646 3.228a7.967 7.967 0 0 1-2.757 2.169c-.741.323-1.539.588-2.387.695 0 0-1.588.257-3.44-.108-.634-.116-1.218-.265-1.753-.53-.049 0-.049 0-.099-.058 0-.05-.058-.05-.058-.05h-.041a6.263 6.263 0 0 1-.905-.53 9.036 9.036 0 0 1-1.811-1.639c-.741-.911-1.268-1.962-1.646-3.228-.37-1.217-.535-2.541-.535-3.973 0-1.374.165-2.748.527-3.957.379-1.275.905-2.326 1.646-3.286a8.314 8.314 0 0 1 2.716-2.169c.988-.464 2.107-.737 3.374-.795.856-.05 1.597 0 2.173.099l.782.166c0 .058.058.058.099.058a.212.212 0 0 0 .165.058c.107 0 .222.066.222.066.313.083.683.248.988.414 1.07.521 1.975 1.217 2.716 2.177zm21.737 3.278c-.379-1.217-.905-2.318-1.646-3.278s-1.646-1.656-2.716-2.177a4.816 4.816 0 0 0-.988-.414s-.115-.066-.222-.066c-.049 0-.107 0-.165-.058-.049 0-.099 0-.099-.058l-.79-.166c-.576-.099-1.317-.149-2.165-.099-1.267.058-2.387.331-3.374.795a8.314 8.314 0 0 0-2.716 2.169c-.741.96-1.267 2.011-1.646 3.286-.362 1.209-.527 2.583-.527 3.957 0 1.432.165 2.756.535 3.973a10.555 10.555 0 0 0 1.646 3.228 8.798 8.798 0 0 0 1.811 1.639c.313.215.946.53.946.53s.049 0 .049.05c.035 0 .052.017.067.032.013.013.026.026.048.026.535.265 1.111.414 1.753.53 1.852.364 3.44.108 3.44.108.848-.108 1.646-.373 2.387-.695a8.03 8.03 0 0 0 2.757-2.169c.741-.894 1.267-2.011 1.646-3.228.362-1.217.519-2.541.519-3.973 0-1.424-.206-2.748-.527-3.973l-.025.033zm-12.403 1.159c.214-.828.477-1.631.848-2.268.37-.629.848-1.159 1.374-1.523a3.21 3.21 0 0 1 1.852-.579c.691 0 1.276.149 1.811.521.527.364.947.828 1.317 1.424.37.637.634 1.325.848 2.169.222.844.329 1.697.329 2.649v.315c0 .952-.107 1.904-.263 2.748-.214.853-.477 1.589-.848 2.235a4.646 4.646 0 0 1-1.383 1.473c-.527.373-1.152.53-1.852.53-.691 0-1.317-.166-1.852-.53a4.546 4.546 0 0 1-1.383-1.49c-.379-.629-.642-1.366-.856-2.218-.206-.844-.263-1.796-.263-2.748.058-.911.165-1.854.329-2.699l-.008-.008zm-20.033 0c.206-.828.469-1.631.84-2.268.37-.629.848-1.159 1.383-1.523a3.154 3.154 0 0 1 1.852-.579c.691 0 1.276.149 1.811.521.519.364.947.828 1.317 1.424.37.637.634 1.325.848 2.169s.329 1.697.329 2.649l-.016.315c0 .952-.099 1.904-.263 2.748-.206.853-.477 1.589-.848 2.235-.362.629-.84 1.101-1.366 1.473s-1.169.53-1.852.53c-.7 0-1.333-.166-1.868-.53a4.611 4.611 0 0 1-1.375-1.49c-.329-.521-.576-1.258-.798-2.152-.214-.853-.272-1.821-.272-2.765 0-.952.058-1.904.263-2.748l.016-.008z"/>
    </symbol>
    <symbol id="icon-oval" viewBox="0 0 32 32">
      <path stroke-width="3.2" d="M30.4 16c0 7.953-6.447 14.4-14.4 14.4S1.6 23.953 1.6 16 8.047 1.6 16 1.6 30.4 8.047 30.4 16z"/>
    </symbol>
    <symbol id="icon-shape" viewBox="0 0 132 32">
      <path d="M99.082 12H0v8h99.082v12L132 16 99.082 0v12z"/>
    </symbol>
  </defs>
</svg>
